<svg width="11" height="10" viewBox="0 0 11 10" fill="none" xmlns="http://www.w3.org/2000/svg">
<path d="M8.74999 0.666672C8.83154 0.666673 8.91204 0.685087 8.98547 0.72054C9.05891 0.755992 9.1234 0.807569 9.17412 0.871422L9.2142 0.929922L10.8392 3.63826C10.8924 3.72706 10.9191 3.82926 10.916 3.93275C10.9129 4.03624 10.8803 4.13668 10.8219 4.22217L10.7785 4.27796L6.15812 9.44167C6.07233 9.5292 5.96992 9.59872 5.85691 9.64616C5.7439 9.69359 5.62256 9.71799 5.49999 9.71792C5.28333 9.71792 5.07479 9.64209 4.89874 9.49205L4.82562 9.4238L0.221452 4.27796C0.152186 4.20068 0.106581 4.10512 0.0900641 4.00266C0.0735474 3.90019 0.086814 3.79514 0.128285 3.70001L0.160785 3.63771L1.79283 0.917463L1.82749 0.868713C1.85229 0.837871 1.88045 0.809892 1.91145 0.785297L1.95966 0.75063L2.00733 0.723547L2.03441 0.711088L2.06691 0.697547L2.12595 0.680213L2.18662 0.66938L2.24999 0.666672H8.74999ZM3.93674 2.80246C3.8136 2.72872 3.66623 2.70687 3.52699 2.7417C3.38775 2.77654 3.26803 2.86522 3.19412 2.98826L2.86912 3.52992L2.83662 3.59276C2.79516 3.68835 2.78216 3.79387 2.79916 3.89667C2.81617 3.99947 2.86246 4.09519 2.93249 4.17234L4.01583 5.36401L4.06458 5.41167C4.16484 5.49747 4.29299 5.54372 4.42494 5.54172C4.55689 5.53973 4.68357 5.48963 4.7812 5.40084L4.82833 5.35209C4.91413 5.25182 4.96037 5.12368 4.95838 4.99173C4.95638 4.85978 4.90629 4.73309 4.81749 4.63546L4.00445 3.74171L4.12254 3.54509L4.15233 3.4893C4.20676 3.36828 4.21488 3.23149 4.17514 3.10489C4.1354 2.97828 4.05057 2.87067 3.93674 2.80246Z" fill="#703BE7"/>
<path d="M8.74999 0.666672C8.83154 0.666673 8.91204 0.685087 8.98547 0.72054C9.05891 0.755992 9.1234 0.807569 9.17412 0.871422L9.2142 0.929922L10.8392 3.63826C10.8924 3.72706 10.9191 3.82926 10.916 3.93275C10.9129 4.03624 10.8803 4.13668 10.8219 4.22217L10.7785 4.27796L6.15812 9.44167C6.07233 9.5292 5.96992 9.59872 5.85691 9.64616C5.7439 9.69359 5.62256 9.71799 5.49999 9.71792C5.28333 9.71792 5.07479 9.64209 4.89874 9.49205L4.82562 9.4238L0.221452 4.27796C0.152186 4.20068 0.106581 4.10512 0.0900641 4.00266C0.0735474 3.90019 0.086814 3.79514 0.128285 3.70001L0.160785 3.63771L1.79283 0.917463L1.82749 0.868713C1.85229 0.837871 1.88045 0.809892 1.91145 0.785297L1.95966 0.75063L2.00733 0.723547L2.03441 0.711088L2.06691 0.697547L2.12595 0.680213L2.18662 0.66938L2.24999 0.666672H8.74999ZM3.93674 2.80246C3.8136 2.72872 3.66623 2.70687 3.52699 2.7417C3.38775 2.77654 3.26803 2.86522 3.19412 2.98826L2.86912 3.52992L2.83662 3.59276C2.79516 3.68835 2.78216 3.79387 2.79916 3.89667C2.81617 3.99947 2.86246 4.09519 2.93249 4.17234L4.01583 5.36401L4.06458 5.41167C4.16484 5.49747 4.29299 5.54372 4.42494 5.54172C4.55689 5.53973 4.68357 5.48963 4.7812 5.40084L4.82833 5.35209C4.91413 5.25182 4.96037 5.12368 4.95838 4.99173C4.95638 4.85978 4.90629 4.73309 4.81749 4.63546L4.00445 3.74171L4.12254 3.54509L4.15233 3.4893C4.20676 3.36828 4.21488 3.23149 4.17514 3.10489C4.1354 2.97828 4.05057 2.87067 3.93674 2.80246Z" fill="url(#paint0_linear_606_61)" fill-opacity="0.34"/>
<defs>
<linearGradient id="paint0_linear_606_61" x1="5.4997" y1="0.666672" x2="5.4997" y2="9.71792" gradientUnits="userSpaceOnUse">
<stop stopColor="white"/>
<stop offset="1" stopColor="white" stop-opacity="0"/>
</linearGradient>
</defs>
</svg>
